<svg width="68" height="86" viewBox="0 0 68 86" fill="none" xmlns="http://www.w3.org/2000/svg">
<path d="M31.5895 40.8678L7.5116 40.8678C7.5116 40.8678 9.79875 32.4638 13.1591 30.1403C16.5194 27.8168 16.96 27.7713 36.0063 27.7666C53.2061 27.7624 56.086 27.5878 58.7598 26.3879C60.2869 25.7025 62.0143 23.2873 62.3752 21.3319C62.5053 20.6288 62.7444 20.0533 62.9068 20.0533C63.3789 20.0533 64.6699 23.1443 65.1431 25.4065C65.7071 28.1047 65.1549 31.3475 63.5717 34.6304C62.2154 37.4427 60.5092 39.0265 57.6741 40.1046C55.752 40.8358 54.6568 40.8678 31.5895 40.8678Z" fill="white"/>
<path d="M6.65186 39.4118C4.37217 35.5565 5.15001 29.5016 8.35088 26.1879C9.0038 25.5117 9.69785 24.8117 22.1151 16.0767L44.6922 0.194286L45.5371 2.03508C47.3173 5.91247 46.9529 10.2736 44.56 13.7239C43.4363 15.3447 42.2448 16.31 33.2031 22.925C30.6571 24.7877 30.454 24.9746 30.9812 24.6305C32.0217 23.9093 33.2484 23.0746 33.2484 23.0746C33.2484 23.0746 31.6045 24.2236 30.9812 24.6305C30.1478 25.208 29.4339 25.7127 29.5653 25.6573L18.541 33.2658L7.51682 40.8743L6.65186 39.4118Z" fill="white"/>
<path d="M37.0437 45.1227L61.1216 45.1227C61.1216 45.1227 58.8344 53.5267 55.4741 55.8502C52.1138 58.1737 51.6732 58.2192 32.6269 58.2238C15.4271 58.2281 12.5472 58.4027 9.87336 59.6026C8.34631 60.2879 6.6189 62.7032 6.25801 64.6586C6.12785 65.3617 5.88876 65.9372 5.72634 65.9372C5.25426 65.9372 3.96325 62.8462 3.49003 60.584C2.92612 57.8858 3.47829 54.643 5.0615 51.3601C6.41777 48.5478 8.12394 46.964 10.9591 45.8859C12.8812 45.1547 13.9763 45.1227 37.0437 45.1227Z" fill="white"/>
<path d="M61.9927 46.5882C64.2724 50.4435 63.4945 56.4984 60.2936 59.8121C59.6407 60.4883 58.9467 61.1883 46.5294 69.9233L23.9524 85.8057L23.1074 83.9649C21.3272 80.0875 21.6917 75.7264 24.0845 72.2762C25.2082 70.6553 26.3998 69.69 35.4415 63.075C37.9875 61.2124 38.1905 61.0254 37.6633 61.3695C36.6228 62.0907 35.3961 62.9254 35.3961 62.9254C35.3961 62.9254 37.04 61.7764 37.6633 61.3695C38.4967 60.792 39.2106 60.2873 39.0793 60.3427L50.1035 52.7342L61.1277 45.1258L61.9927 46.5882Z" fill="white"/>
</svg>
