<svg width="128" height="128" viewBox="0 0 128 128" fill="none" xmlns="http://www.w3.org/2000/svg">
<g clip-path="url(#clip0_65_1236)">
<rect width="128" height="128" fill="white"/>
<path d="M100.016 27L68.8 50.1843L74.5726 36.5059L100.016 27Z" fill="#E2761B" stroke="#E2761B" stroke-linecap="round" stroke-linejoin="round"/>
<path d="M27.9529 27L58.9176 50.4039L53.4274 36.5059L27.9529 27Z" fill="#E4761B" stroke="#E4761B" stroke-linecap="round" stroke-linejoin="round"/>
<path d="M88.7844 80.7412L80.4707 93.4785L98.2589 98.3726L103.373 81.0236L88.7844 80.7412Z" fill="#E4761B" stroke="#E4761B" stroke-linecap="round" stroke-linejoin="round"/>
<path d="M24.6587 81.0236L29.741 98.3726L47.5293 93.4785L39.2156 80.7412L24.6587 81.0236Z" fill="#E4761B" stroke="#E4761B" stroke-linecap="round" stroke-linejoin="round"/>
<path d="M46.5255 59.2195L41.5686 66.7176L59.2313 67.5019L58.6039 48.5215L46.5255 59.2195Z" fill="#E4761B" stroke="#E4761B" stroke-linecap="round" stroke-linejoin="round"/>
<path d="M81.4429 59.2194L69.2076 48.3018L68.7998 67.5018L86.4312 66.7174L81.4429 59.2194Z" fill="#E4761B" stroke="#E4761B" stroke-linecap="round" stroke-linejoin="round"/>
<path d="M47.5293 93.4783L58.1332 88.3019L48.9724 81.1489L47.5293 93.4783Z" fill="#E4761B" stroke="#E4761B" stroke-linecap="round" stroke-linejoin="round"/>
<path d="M69.8352 88.3019L80.4705 93.4783L78.996 81.1489L69.8352 88.3019Z" fill="#E4761B" stroke="#E4761B" stroke-linecap="round" stroke-linejoin="round"/>
<path d="M80.4705 93.4782L69.8352 88.3018L70.6823 95.2351L70.5881 98.1527L80.4705 93.4782Z" fill="#D7C1B3" stroke="#D7C1B3" stroke-linecap="round" stroke-linejoin="round"/>
<path d="M47.5293 93.4782L57.4116 98.1527L57.3489 95.2351L58.1332 88.3018L47.5293 93.4782Z" fill="#D7C1B3" stroke="#D7C1B3" stroke-linecap="round" stroke-linejoin="round"/>
<path d="M57.5687 76.5687L48.7217 73.9648L54.9648 71.1099L57.5687 76.5687Z" fill="#233447" stroke="#233447" stroke-linecap="round" stroke-linejoin="round"/>
<path d="M70.3999 76.5687L73.0038 71.1099L79.2783 73.9648L70.3999 76.5687Z" fill="#233447" stroke="#233447" stroke-linecap="round" stroke-linejoin="round"/>
<path d="M47.5295 93.4785L49.0354 80.7412L39.2158 81.0236L47.5295 93.4785Z" fill="#CD6116" stroke="#CD6116" stroke-linecap="round" stroke-linejoin="round"/>
<path d="M78.9648 80.7412L80.4707 93.4785L88.7845 81.0236L78.9648 80.7412Z" fill="#CD6116" stroke="#CD6116" stroke-linecap="round" stroke-linejoin="round"/>
<path d="M86.4314 66.7178L68.8 67.5021L70.4314 76.5688L73.0353 71.1099L79.3099 73.9648L86.4314 66.7178Z" fill="#CD6116" stroke="#CD6116" stroke-linecap="round" stroke-linejoin="round"/>
<path d="M48.7218 73.9648L54.9963 71.1099L57.5688 76.5688L59.2316 67.5021L41.5688 66.7178L48.7218 73.9648Z" fill="#CD6116" stroke="#CD6116" stroke-linecap="round" stroke-linejoin="round"/>
<path d="M41.5686 66.7178L48.9725 81.1491L48.7215 73.9648L41.5686 66.7178Z" fill="#E4751F" stroke="#E4751F" stroke-linecap="round" stroke-linejoin="round"/>
<path d="M79.3098 73.9648L78.9961 81.1491L86.4314 66.7178L79.3098 73.9648Z" fill="#E4751F" stroke="#E4751F" stroke-linecap="round" stroke-linejoin="round"/>
<path d="M59.2313 67.502L57.5686 76.5686L59.6392 87.2667L60.1098 73.1804L59.2313 67.502Z" fill="#E4751F" stroke="#E4751F" stroke-linecap="round" stroke-linejoin="round"/>
<path d="M68.7999 67.502L67.9529 73.149L68.3294 87.2667L70.4313 76.5686L68.7999 67.502Z" fill="#E4751F" stroke="#E4751F" stroke-linecap="round" stroke-linejoin="round"/>
<path d="M70.4313 76.5688L68.3293 87.2668L69.8352 88.3021L78.996 81.1492L79.3097 73.9648L70.4313 76.5688Z" fill="#F6851B" stroke="#F6851B" stroke-linecap="round" stroke-linejoin="round"/>
<path d="M48.7217 73.9648L48.9727 81.1492L58.1334 88.3021L59.6393 87.2668L57.5687 76.5688L48.7217 73.9648Z" fill="#F6851B" stroke="#F6851B" stroke-linecap="round" stroke-linejoin="round"/>
<path d="M70.5881 98.153L70.6822 95.2354L69.8979 94.5452H58.0705L57.3489 95.2354L57.4116 98.153L47.5293 93.4785L50.9803 96.302L57.9764 101.165H69.992L77.0195 96.302L80.4705 93.4785L70.5881 98.153Z" fill="#C0AD9E" stroke="#C0AD9E" stroke-linecap="round" stroke-linejoin="round"/>
<path d="M69.8351 88.3019L68.3293 87.2666H59.6391L58.1332 88.3019L57.3489 95.2352L58.0704 94.545H69.8979L70.6822 95.2352L69.8351 88.3019Z" fill="#161616" stroke="#161616" stroke-linecap="round" stroke-linejoin="round"/>
<path d="M101.333 51.6902L104 38.8902L100.016 27L69.8352 49.4L81.443 59.2196L97.8509 64.0196L101.49 59.7843L99.9215 58.6549L102.431 56.3647L100.486 54.8588L102.996 52.9451L101.333 51.6902Z" fill="#763D16" stroke="#763D16" stroke-linecap="round" stroke-linejoin="round"/>
<path d="M24 38.8902L26.6667 51.6902L24.9725 52.9451L27.4824 54.8588L25.5686 56.3647L28.0784 58.6549L26.5098 59.7843L30.1176 64.0196L46.5255 59.2196L58.1333 49.4L27.9529 27L24 38.8902Z" fill="#763D16" stroke="#763D16" stroke-linecap="round" stroke-linejoin="round"/>
<path d="M97.851 64.0197L81.4431 59.2197L86.4314 66.7178L78.9961 81.1491L88.7843 81.0237H103.373L97.851 64.0197Z" fill="#F6851B" stroke="#F6851B" stroke-linecap="round" stroke-linejoin="round"/>
<path d="M46.5254 59.2197L30.1175 64.0197L24.6587 81.0237H39.2156L48.9724 81.1491L41.5685 66.7178L46.5254 59.2197Z" fill="#F6851B" stroke="#F6851B" stroke-linecap="round" stroke-linejoin="round"/>
<path d="M68.8 67.5019L69.8353 49.4L74.604 36.5059H53.4275L58.1334 49.4L59.2314 67.5019L59.6079 73.2117L59.6393 87.2666H68.3295L68.3922 73.2117L68.8 67.5019Z" fill="#F6851B" stroke="#F6851B" stroke-linecap="round" stroke-linejoin="round"/>
</g>
<defs>
<clipPath id="clip0_65_1236">
<rect width="128" height="128" rx="24" fill="white"/>
</clipPath>
</defs>
</svg>
