<svg xmlns="http://www.w3.org/2000/svg" width="6" height="10" viewBox="0 0 6 10" fill="none">
  <path d="M2.93004 0.00420089L3 0C3.30768 0 3.5613 0.241324 3.59598 0.552224L3.6 0.625126V7.86645L4.97557 6.43254C5.19175 6.20712 5.53207 6.18962 5.76751 6.38015L5.82409 6.43217C6.04045 6.6574 6.05725 7.01197 5.87437 7.25727L5.82445 7.31622L3.42672 9.81672C3.21054 10.0421 2.87022 10.0596 2.63472 9.86911L2.5782 9.8171L0.175938 7.31659C-0.0584888 7.07261 -0.0586688 6.67678 0.175536 6.43254C0.391728 6.20712 0.732054 6.18962 0.967519 6.38015L1.02407 6.43217L2.4 7.86395V0.625126C2.4 0.304536 2.6316 0.0403144 2.93004 0.00420089Z" fill="white"/>
</svg>