<svg width="16" height="17" viewBox="0 0 16 17" fill="none" xmlns="http://www.w3.org/2000/svg">
<g id="icon">
<path id="Vector" d="M12.6667 8.5C12.6667 5.92267 10.5773 3.83333 8 3.83333C7.12 3.83333 6.2972 4.07656 5.59468 4.5H6C6.36819 4.5 6.66667 4.79848 6.66667 5.16667C6.66667 5.53485 6.36819 5.83333 6 5.83333H4C3.63181 5.83333 3.33333 5.53485 3.33333 5.16667C3.33333 4.5 3.33333 3.83333 3.33333 3.16667C3.33333 2.79848 3.63181 2.5 4 2.5C4.36819 2.5 4.66667 2.79848 4.66667 3.16667V3.5105C5.6199 2.87253 6.76667 2.5 8 2.5C11.3137 2.5 14 5.18629 14 8.5C14 11.8137 11.3137 14.5 8 14.5C4.68629 14.5 2 11.8137 2 8.5C2 8.2466 2.01575 7.99653 2.04639 7.75087C2.09195 7.38547 2.42506 7.12623 2.79042 7.1718C3.15578 7.21733 3.41503 7.55047 3.36947 7.9158C3.34564 8.10693 3.33333 8.30187 3.33333 8.5C3.33333 11.0773 5.42267 13.1667 8 13.1667C10.5773 13.1667 12.6667 11.0773 12.6667 8.5Z" fill="white"/>
</g>
</svg>
