<svg width="25" height="24" viewBox="0 0 25 24" fill="none" xmlns="http://www.w3.org/2000/svg">
<g id="Timer / undefined / Glyph: undefined">
<path id="Vector" d="M12.5 5C17.1944 5 21 8.80558 21 13.5C21 18.1944 17.1944 22 12.5 22C7.80558 22 4 18.1944 4 13.5C4 8.80558 7.80558 5 12.5 5ZM12.5 6.5C8.63401 6.5 5.5 9.63401 5.5 13.5C5.5 17.366 8.63401 20.5 12.5 20.5C16.366 20.5 19.5 17.366 19.5 13.5C19.5 9.63401 16.366 6.5 12.5 6.5ZM12.5 8C12.8797 8 13.1935 8.28215 13.2432 8.64823L13.25 8.75V13.25C13.25 13.6642 12.9142 14 12.5 14C12.1203 14 11.8065 13.7178 11.7568 13.3518L11.75 13.25V8.75C11.75 8.33579 12.0858 8 12.5 8ZM19.6472 5.11371L19.7298 5.17355L20.8882 6.13773C21.2066 6.40272 21.2498 6.87562 20.9849 7.19398C20.7419 7.48581 20.3243 7.54649 20.0112 7.35047L19.9286 7.29063L18.7702 6.32645C18.4518 6.06146 18.4086 5.58856 18.6735 5.2702C18.9165 4.97837 19.3341 4.91769 19.6472 5.11371ZM14.75 2.5C15.1642 2.5 15.5 2.83579 15.5 3.25C15.5 3.6297 15.2178 3.94349 14.8518 3.99315L14.75 4H10.25C9.83579 4 9.5 3.66421 9.5 3.25C9.5 2.8703 9.78215 2.55651 10.1482 2.50685L10.25 2.5H14.75Z" fill="#111111"/>
</g>
</svg>
