<svg width="12" height="12" viewBox="0 0 12 12" fill="none" xmlns="http://www.w3.org/2000/svg">
<g id="icon" clip-path="url(#clip0_260_7157)">
<path id="Vector" d="M4.91792 1.01699C4.97418 1.03613 5.02915 1.05889 5.08245 1.08514L5.72385 1.40091C5.8979 1.48661 6.1019 1.48661 6.27595 1.40091L6.91735 1.08514C7.5986 0.749709 8.42285 1.03009 8.75825 1.71138L8.795 1.79254L8.8264 1.87591L9.05665 2.55271C9.11915 2.7364 9.2634 2.88065 9.44705 2.94313L10.1238 3.17336C10.8428 3.41792 11.2273 4.19899 10.9828 4.91792C10.9636 4.97418 10.9409 5.02915 10.9146 5.08245L10.5988 5.72385C10.5131 5.8979 10.5131 6.1019 10.5988 6.27595L10.9146 6.91735C11.2501 7.5986 10.9697 8.42285 10.2884 8.75825C10.2351 8.7845 10.1801 8.8073 10.1238 8.8264L9.44705 9.05665C9.2634 9.11915 9.11915 9.2634 9.05665 9.44705L8.8264 10.1238C8.58185 10.8428 7.8008 11.2273 7.08185 10.9828C7.0256 10.9636 6.97065 10.9409 6.91735 10.9146L6.27595 10.5988C6.1019 10.5131 5.8979 10.5131 5.72385 10.5988L5.08245 10.9146C4.40116 11.2501 3.57694 10.9697 3.24151 10.2884C3.21526 10.2351 3.1925 10.1801 3.17336 10.1238L2.94313 9.44705C2.88065 9.2634 2.7364 9.11915 2.55271 9.05665L1.87591 8.8264C1.15698 8.58185 0.772429 7.8008 1.01699 7.08185C1.03613 7.0256 1.05889 6.97065 1.08514 6.91735L1.40091 6.27595C1.48661 6.1019 1.48661 5.8979 1.40091 5.72385L1.08514 5.08245C0.749709 4.40116 1.03009 3.57694 1.71138 3.24151C1.76469 3.21526 1.81965 3.1925 1.87591 3.17336L2.55271 2.94313C2.7364 2.88065 2.88065 2.7364 2.94313 2.55271L3.17336 1.87591C3.41792 1.15698 4.19899 0.772429 4.91792 1.01699ZM7.73475 4.48473L5.0251 7.19435L4.03797 6.00985C3.90539 5.8507 3.66893 5.8292 3.50982 5.9618C3.35072 6.0944 3.32922 6.33085 3.46181 6.48995L4.71181 7.98995C4.85298 8.15935 5.10915 8.171 5.26505 8.01505L8.26505 5.01505C8.4115 4.86861 8.4115 4.63117 8.26505 4.48473C8.1186 4.33828 7.8812 4.33828 7.73475 4.48473Z" fill="#111111" fill-opacity="0.9"/>
</g>
<defs>
<clipPath id="clip0_260_7157">
<rect width="12" height="12" fill="white"/>
</clipPath>
</defs>
</svg>
