<svg width="32" height="32" viewBox="0 0 32 32" fill="none" xmlns="http://www.w3.org/2000/svg">
<g id="Avalanche (AVAX)">
<rect id="Rectangle 2" width="32" height="32" rx="4" fill="#E84142"/>
<path id="Avalanche (AVAX)_2" fill-rule="evenodd" clip-rule="evenodd" d="M16.4845 7.61245C16.0117 6.79585 15.2596 6.79585 14.7868 7.61245L6.20177 22.7303C5.72901 23.5576 6.11582 24.2131 7.06135 24.2131H11.37C12.2403 24.1593 13.0247 23.6973 13.4975 22.9667L18.6872 13.9733C19.0632 13.1997 19.0632 12.2864 18.6872 11.5128L17.1399 8.79437L16.4845 7.61245ZM22.1899 17.5621C21.7172 16.7455 20.9543 16.7455 20.4815 17.5621L17.4837 22.7303C17.0217 23.5469 17.4085 24.2131 18.3433 24.2131H24.2744C25.2199 24.2131 25.6068 23.5469 25.134 22.7303L22.1899 17.5621Z" fill="white"/>
</g>
</svg>
