<svg width="32" height="32" viewBox="0 0 32 32" fill="none" xmlns="http://www.w3.org/2000/svg">
<g id="Binance Coin (BNB)">
<rect id="Vector" width="32" height="32" rx="6" fill="#F3BA2F"/>
<path id="Binance Coin (BNB)_2" fill-rule="evenodd" clip-rule="evenodd" d="M16 10.1546L11.8569 14.2977L11.857 14.2975L9.44638 11.8869L16 5.33325L22.5557 11.8888L20.145 14.2995L16 10.1546ZM7.74407 13.5888L5.33331 15.9999L7.74389 18.4102L10.1546 15.9994L7.74407 13.5888ZM11.8569 17.7024L16 21.8453L20.145 17.7004L22.5569 20.1098L22.5557 20.1111L16 26.6666L9.44638 20.113L9.44296 20.1096L11.8569 17.7024ZM24.2561 13.5902L21.8453 16.0009L24.256 18.4115L26.6666 16.0008L24.2561 13.5902Z" fill="white"/>
<path id="Binance Coin (BNB)_3" d="M18.445 15.9987H18.446L16 13.5525L14.192 15.3599L13.9843 15.5677L13.556 15.9962L13.5526 15.9995L13.556 16.003L16 18.4474L18.4462 16.0012L18.4474 15.9999L18.4451 15.9987" fill="white"/>
</g>
</svg>
