<svg width="32" height="32" viewBox="0 0 32 32" fill="none" xmlns="http://www.w3.org/2000/svg">
<g id="Tether (USDT)">
<rect id="Vector" width="32" height="32" rx="6" fill="#50AF95"/>
<path id="Tether (USDT)_2" fill-rule="evenodd" clip-rule="evenodd" d="M18.0244 17.8138C17.9113 17.8223 17.3267 17.8572 16.0229 17.8572C14.9858 17.8572 14.2495 17.8261 13.9912 17.8138C9.98337 17.6375 6.9919 16.9398 6.9919 16.1045C6.9919 15.2692 9.98337 14.5725 13.9912 14.3934V17.119C14.2532 17.1378 15.0037 17.1821 16.0408 17.1821C17.2853 17.1821 17.9084 17.1303 18.0206 17.1199V14.3953C22.0199 14.5734 25.0048 15.2711 25.0048 16.1045C25.0048 16.938 22.0209 17.6356 18.0206 17.8129L18.0244 17.8138ZM18.0244 14.1134V11.6744H23.6057V7.95508H8.40985V11.6744H13.9902V14.1124C9.45446 14.3208 6.04346 15.2193 6.04346 16.2959C6.04346 17.3726 9.45446 18.2701 13.9902 18.4794V26.2951H18.0235V18.4766C22.5488 18.2682 25.9542 17.3707 25.9542 16.295C25.9542 15.2193 22.5517 14.3217 18.0235 14.1124L18.0244 14.1134Z" fill="white"/>
</g>
</svg>
