<svg width="32" height="32" viewBox="0 0 32 32" fill="none" xmlns="http://www.w3.org/2000/svg">
<g id="TRON (TRX)">
<rect id="Vector" width="32" height="32" rx="6" fill="#FC070C"/>
<g id="TRON (TRX)_2">
<path id="TRON (TRX)_3" fill-rule="evenodd" clip-rule="evenodd" d="M25.9295 11.2081L25.9294 11.208C25.1884 10.4886 24.4054 9.72833 23.7143 9.11499L23.6443 9.06599C23.5279 8.97246 23.3966 8.89911 23.2558 8.84899L22.7224 8.74946C19.0423 8.0628 7.11427 5.83715 6.8689 5.867C6.79633 5.87716 6.72696 5.90347 6.6659 5.944L6.5994 5.9965C6.51752 6.07966 6.45532 6.18012 6.4174 6.2905L6.3999 6.33599V6.58449V6.62299C7.20973 8.878 9.31343 13.9139 11.2559 18.5639L11.2559 18.5639L11.2559 18.564C12.8981 22.4952 14.425 26.1504 14.9574 27.6159L14.9576 27.6165C15.0276 27.8337 15.1606 28.2459 15.4089 28.2669H15.4649C15.5979 28.2669 16.1649 27.5179 16.1649 27.5179C16.1649 27.5179 26.3008 15.226 27.3263 13.917C27.4591 13.7557 27.5763 13.5823 27.6763 13.399C27.7283 13.1072 27.6233 12.8096 27.3998 12.615C26.9632 12.2118 26.457 11.7203 25.9295 11.2081ZM18.7654 14.0465L23.0914 10.459L25.6288 12.797L18.7654 14.0465ZM9.63739 7.70799L17.0854 13.812L21.6879 9.93048L9.63739 7.70799ZM17.7574 15.4115L25.3803 14.183L16.6654 24.6829L17.7574 15.4115ZM16.4624 14.967L8.62589 8.31699L15.3284 24.6899L16.4624 14.967Z" fill="white"/>
</g>
</g>
</svg>
